<svg width="334" height="83" viewBox="0 0 334 83" fill="none" xmlns="http://www.w3.org/2000/svg">
<path d="M41.6667 81.837L38.5031 73.0641L38.2826 72.2979V71.4688L38.5031 70.1527L38.8969 69.2721L39.5834 68.7736L40.5643 68.2177L41.6667 67.9308L43.7235 67.7009H45.7559L49.9223 67.9308L53.7802 68.4671L58.4663 69.4479L62.8541 70.5023L64.7847 71.072L66.8908 71.7324L69.348 72.7868L71.3664 74.1858L78.1235 80.272L75.8419 76.9165L74.35 74.4563L72.9151 71.7324L72.4522 70.2387V68.7736L73.1215 65.1424L73.2092 63.3851L73.1215 62.4186L72.9151 61.5717L72.2439 60.0462L71.2948 58.5069L68.9801 56.4384L67.1541 55.3892L65.399 54.5985L63.4684 53.8077L61.6503 53.3738L57.6765 52.4018L53.7802 51.7648L49.6031 50.9959L45.5244 50.6155L41.0908 50.3092H37.0372H31.4047L25.9265 50.6155L20.217 51.4583L14.5073 52.8374L13.2728 49.8494L10.5724 48.6235H7.56323L5.28668 50.293L4.58464 51.6989L2.85657 54.0713L3.70709 55.6528L4.16833 57.0513L5.11117 57.4102L5.54995 57.5859L6.02014 57.5877L5.72546 57.6738L5.4622 57.8495L5.02342 58.201L4.16833 58.9666L3.26831 59.7826L2.65403 60.6612L2.39076 61.0127L2.21525 61.3642L2.03974 61.7156L1.93075 62.108L1.77648 62.5064L1.68872 62.8579V63.2972L1.77648 63.7935L2.21525 64.7031L2.47852 65.1424L2.85657 65.5557L3.26831 65.9332L3.70709 66.2847L4.23362 66.6362L4.70838 66.8581L5.81322 67.5148L7.04179 68.042L8.27036 68.5692L9.58669 68.9207L12.2193 69.7115L14.8931 70.459L17.8357 71.1173L20.7571 71.5317L26.4357 72.0839L28.9806 72.1717H30.2969L31.6362 72.2979L32.8418 72.6111L34.1581 73.2261L35.3867 73.8412L36.5742 74.9028L41.6667 81.837Z" fill="#AEC5CE" stroke="#AEC5CE"/>
<path d="M11.1005 57.6049C14.2099 55.6504 15.5059 52.1128 13.9952 49.7034C12.4846 47.2941 8.73934 46.9254 5.62999 48.8799C2.52063 50.8344 1.22462 54.372 2.73527 56.7813C4.24592 59.1906 7.99118 59.5594 11.1005 57.6049Z" fill="#AEC5CE"/>
<path d="M65.3682 29.1436C67.7047 28.9609 69.374 25.9306 69.0967 22.3751C68.8195 18.8197 66.7006 16.0855 64.3641 16.2681C62.0276 16.4508 60.3583 19.4811 60.6356 23.0366C60.9128 26.5921 63.0317 29.3263 65.3682 29.1436Z" fill="white"/>
<path d="M38.897 11.6602C47.9444 20.2386 52.7623 26.246 62.0643 33.6268C69.1873 39.2786 75.3838 21.8492 78.8419 10.1378C79.2579 8.68997 79.6401 7.35581 79.9762 6.17998C80.4872 4.35183 80.8971 2.83789 81.195 1.81917C81.8144 -0.299643 81.2043 1.88243 79.9762 6.17998C79.6405 7.38094 79.2614 8.71721 78.8419 10.1378C75.6083 21.3923 70.3363 39.5109 68.9093 43.4678C66.8075 49.2951 76.4701 75.6986 78.0075 79.8278C78.1401 80.1804 78.2113 80.3717 78.2113 80.3717C78.2113 80.3717 78.1392 80.1814 78.0075 79.8278C76.4513 75.6867 66.4486 49.3083 64.346 49.7942C62.4929 50.2223 48.831 71.1683 43.7644 79.0212C43.1277 80.0744 42.4979 81.0571 41.8806 81.9533C41.8806 81.9533 42.5927 80.8374 43.7644 79.0212C50.4189 68.0139 57.8145 49.3176 59.2562 41.3591C60.8358 32.639 48.1174 23.1999 38.897 11.6602Z" fill="white"/>
<path d="M38.897 11.6601C47.9444 20.2385 52.7623 26.2459 62.0644 33.6267C71.3664 41.0075 79.0889 9.02411 81.195 1.81906C83.3011 -5.38598 71.1909 37.1414 68.9093 43.4677C66.6276 49.7941 78.2113 80.3716 78.2113 80.3716C78.2113 80.3716 66.6276 49.2669 64.346 49.7941C62.0644 50.3213 41.8807 81.9532 41.8807 81.9532C48.9493 71.6896 57.6766 50.079 59.2562 41.3589C60.8358 32.6389 48.1174 23.1998 38.897 11.6601Z" stroke="white"/>
<path d="M97.276 28.7803C96.4835 28.7803 95.7959 28.6545 95.2129 28.4029C94.6302 28.1513 94.1524 27.8098 93.7792 27.3785C93.4063 26.9351 93.1266 26.414 92.94 25.8151C92.7651 25.2161 92.6777 24.5692 92.6777 23.8742V16.0568H94.3736V23.6765C94.3736 24.9224 94.642 25.8272 95.1779 26.3901C95.7142 26.9531 96.4135 27.2348 97.276 27.2348C97.7073 27.2348 98.0977 27.1688 98.4474 27.0371C98.8088 26.8933 99.1178 26.6777 99.374 26.3901C99.6305 26.1026 99.8286 25.7373 99.9685 25.2939C100.108 24.8387 100.178 24.2996 100.178 23.6765V16.0568H101.874V23.8742C101.874 24.5692 101.781 25.2161 101.594 25.8151C101.42 26.414 101.14 26.9351 100.755 27.3785C100.382 27.8098 99.9046 28.1513 99.3215 28.4029C98.7506 28.6545 98.0688 28.7803 97.276 28.7803ZM112.222 17.4406C111.954 17.752 111.639 18.1294 111.278 18.5728C110.928 19.0041 110.555 19.4893 110.159 20.0284C109.763 20.5554 109.355 21.1188 108.935 21.7177C108.515 22.3048 108.102 22.9038 107.694 23.5148C107.298 24.1137 106.919 24.7129 106.557 25.3119C106.196 25.9108 105.87 26.48 105.578 27.0191H112.397V28.5107H103.603V27.3426C103.847 26.8633 104.133 26.3362 104.459 25.7611C104.797 25.1861 105.153 24.5989 105.526 24C105.91 23.4011 106.307 22.7959 106.715 22.1849C107.123 21.5739 107.525 20.9868 107.921 20.4238C108.329 19.8608 108.72 19.3334 109.092 18.8423C109.477 18.3512 109.827 17.9199 110.141 17.5484H103.917V16.0568H112.222V17.4406ZM117.821 28.6185C117.577 28.6185 117.308 28.6127 117.017 28.6006C116.737 28.5885 116.452 28.5705 116.16 28.5466C115.881 28.5228 115.601 28.4927 115.321 28.4568C115.041 28.4209 114.785 28.3728 114.552 28.313V16.2365C114.785 16.1767 115.041 16.1287 115.321 16.0928C115.601 16.0568 115.881 16.0268 116.16 16.0029C116.452 15.9791 116.737 15.9611 117.017 15.949C117.297 15.9369 117.559 15.931 117.804 15.931C118.503 15.931 119.156 15.9849 119.762 16.0928C120.38 16.2006 120.91 16.3862 121.353 16.6499C121.808 16.9015 122.163 17.237 122.42 17.6562C122.676 18.0755 122.804 18.5907 122.804 19.2017C122.804 19.8846 122.647 20.4476 122.332 20.891C122.017 21.3223 121.598 21.6458 121.073 21.8614C121.784 22.0771 122.35 22.4185 122.769 22.8858C123.189 23.353 123.399 24.0121 123.399 24.8626C123.399 26.1085 122.95 27.0492 122.052 27.684C121.166 28.3071 119.756 28.6185 117.821 28.6185ZM116.23 22.7061V27.091C116.358 27.1031 116.51 27.1149 116.685 27.1269C116.836 27.139 117.011 27.1508 117.209 27.1629C117.419 27.1629 117.658 27.1629 117.926 27.1629C118.427 27.1629 118.899 27.1328 119.342 27.073C119.797 27.0011 120.193 26.8812 120.531 26.7136C120.869 26.546 121.137 26.3124 121.336 26.0127C121.545 25.7131 121.65 25.3357 121.65 24.8806C121.65 24.4731 121.574 24.1317 121.423 23.8562C121.271 23.5687 121.05 23.341 120.759 23.1733C120.479 23.0057 120.141 22.8858 119.744 22.8139C119.348 22.742 118.905 22.7061 118.416 22.7061H116.23ZM116.23 21.3043H118.014C118.433 21.3043 118.829 21.2743 119.202 21.2145C119.575 21.1547 119.896 21.0469 120.164 20.891C120.444 20.7352 120.659 20.5316 120.811 20.28C120.974 20.0284 121.056 19.7108 121.056 19.3275C121.056 18.9681 120.974 18.6685 120.811 18.429C120.648 18.1774 120.42 17.9797 120.129 17.8359C119.849 17.6801 119.517 17.5664 119.133 17.4945C118.748 17.4226 118.34 17.3867 117.909 17.3867C117.477 17.3867 117.139 17.3926 116.895 17.4046C116.65 17.4167 116.428 17.4347 116.23 17.4586V21.3043ZM125.786 28.5107V16.0568H133.182V17.5484H127.482V21.2504H132.552V22.7061H127.482V27.0191H133.619V28.5107H125.786ZM144.744 16.0568C144.383 16.4643 143.974 16.9194 143.52 17.4226C143.065 17.9137 142.587 18.4231 142.086 18.9501C141.597 19.4654 141.107 19.9745 140.618 20.4777C140.128 20.9809 139.668 21.4481 139.236 21.8794C139.738 22.2388 140.268 22.6822 140.827 23.2093C141.387 23.7363 141.935 24.2996 142.471 24.8985C143.007 25.4975 143.508 26.1085 143.974 26.7316C144.453 27.3547 144.849 27.9477 145.163 28.5107H143.17C142.82 27.9477 142.418 27.3844 141.964 26.8214C141.509 26.2464 141.026 25.7014 140.513 25.1861C140.012 24.659 139.499 24.1738 138.974 23.7304C138.461 23.287 137.96 22.9096 137.47 22.5983V28.5107H135.775V16.0568H137.47V21.5559C137.879 21.1606 138.327 20.7172 138.817 20.2261C139.306 19.7229 139.79 19.2197 140.268 18.7165C140.746 18.2133 141.195 17.734 141.614 17.2788C142.046 16.8116 142.407 16.4042 142.698 16.0568H144.744ZM146.77 16.0568H148.466V28.5107H146.77V16.0568ZM154.281 27.2707C156.052 27.2707 156.938 26.6476 156.938 25.4017C156.938 25.0185 156.856 24.695 156.693 24.4313C156.542 24.1559 156.332 23.9222 156.064 23.7304C155.796 23.5269 155.487 23.353 155.137 23.2093C154.799 23.0655 154.438 22.9217 154.053 22.778C153.61 22.6221 153.191 22.4486 152.795 22.2568C152.398 22.0532 152.054 21.8196 151.763 21.5559C151.471 21.2805 151.238 20.957 151.064 20.5855C150.9 20.214 150.819 19.7647 150.819 19.2377C150.819 18.1473 151.18 17.2968 151.903 16.6858C152.625 16.0748 153.622 15.7693 154.893 15.7693C155.627 15.7693 156.291 15.8533 156.886 16.0209C157.492 16.1767 157.935 16.3502 158.214 16.542L157.672 17.9617C157.428 17.8059 157.061 17.6562 156.571 17.5125C156.093 17.3566 155.533 17.2788 154.893 17.2788C154.566 17.2788 154.263 17.3148 153.983 17.3867C153.704 17.4586 153.459 17.5664 153.249 17.7102C153.039 17.8539 152.87 18.0395 152.742 18.2672C152.625 18.4829 152.567 18.7404 152.567 19.04C152.567 19.3756 152.631 19.6569 152.76 19.8846C152.888 20.1124 153.068 20.3159 153.302 20.4957C153.535 20.6633 153.803 20.8191 154.106 20.9629C154.42 21.1067 154.764 21.2504 155.137 21.3942C155.662 21.6099 156.14 21.8255 156.571 22.0412C157.014 22.2568 157.393 22.5143 157.707 22.8139C158.034 23.1135 158.284 23.4729 158.459 23.8922C158.634 24.2996 158.722 24.7966 158.722 25.3838C158.722 26.4741 158.331 27.3125 157.55 27.8997C156.781 28.4869 155.691 28.7803 154.281 28.7803C153.803 28.7803 153.36 28.7443 152.952 28.6724C152.555 28.6127 152.2 28.5408 151.885 28.4568C151.571 28.3611 151.297 28.265 151.064 28.1693C150.842 28.0614 150.667 27.9716 150.539 27.8997L151.046 26.462C151.314 26.6179 151.722 26.7914 152.27 26.9832C152.818 27.175 153.488 27.2707 154.281 27.2707ZM168.866 16.0568V17.5664H165.054V28.5107H163.359V17.5664H159.547V16.0568H168.866ZM177.625 28.5107C177.427 27.9716 177.24 27.4445 177.065 26.9293C176.891 26.4022 176.71 25.869 176.523 25.3299H171.034L169.932 28.5107H168.166C168.633 27.1929 169.07 25.9768 169.478 24.8626C169.885 23.7363 170.282 22.6701 170.666 21.6638C171.063 20.6574 171.453 19.699 171.838 18.7884C172.222 17.866 172.625 16.9554 173.044 16.0568H174.6C175.02 16.9554 175.422 17.866 175.807 18.7884C176.191 19.699 176.576 20.6574 176.961 21.6638C177.357 22.6701 177.759 23.7363 178.167 24.8626C178.575 25.9768 179.012 27.1929 179.478 28.5107H177.625ZM176.034 23.8922C175.661 22.8498 175.288 21.8435 174.915 20.873C174.554 19.8905 174.175 18.9501 173.779 18.0516C173.371 18.9501 172.98 19.8905 172.607 20.873C172.246 21.8435 171.885 22.8498 171.523 23.8922H176.034ZM189.428 28.5107C189.172 28.0673 188.874 27.5703 188.536 27.0191C188.21 26.4679 187.855 25.899 187.47 25.3119C187.085 24.7129 186.683 24.1078 186.263 23.4968C185.855 22.8858 185.447 22.2986 185.04 21.7357C184.631 21.1606 184.235 20.6214 183.851 20.1183C183.466 19.6151 183.11 19.1717 182.784 18.7884V28.5107H181.123V16.0568H182.47C183.017 16.6557 183.6 17.3566 184.218 18.1594C184.847 18.9502 185.465 19.7709 186.071 20.6215C186.689 21.4602 187.266 22.2869 187.802 23.1014C188.35 23.916 188.81 24.6411 189.183 25.2759V16.0568H190.844V28.5107H189.428ZM205.985 28.5107C205.786 27.9716 205.6 27.4445 205.425 26.9293C205.251 26.4022 205.07 25.869 204.883 25.3299H199.393L198.292 28.5107H196.526C196.992 27.1929 197.429 25.9768 197.837 24.8626C198.245 23.7363 198.642 22.6701 199.026 21.6638C199.422 20.6574 199.813 19.699 200.198 18.7884C200.582 17.866 200.985 16.9554 201.404 16.0568H202.96C203.38 16.9554 203.782 17.866 204.167 18.7884C204.551 19.699 204.936 20.6574 205.32 21.6638C205.717 22.6701 206.119 23.7363 206.527 24.8626C206.935 25.9768 207.372 27.1929 207.838 28.5107H205.985ZM204.394 23.8922C204.021 22.8498 203.648 21.8435 203.275 20.873C202.913 19.8905 202.535 18.9501 202.138 18.0516C201.73 18.9501 201.34 19.8905 200.967 20.873C200.606 21.8435 200.244 22.8498 199.883 23.8922H204.394ZM212.571 27.2707C214.344 27.2707 215.228 26.6476 215.228 25.4017C215.228 25.0185 215.149 24.695 214.983 24.4313C214.834 24.1559 214.624 23.9222 214.354 23.7304C214.087 23.5269 213.778 23.353 213.429 23.2093C213.089 23.0655 212.729 22.9217 212.345 22.778C211.9 22.6221 211.48 22.4486 211.086 22.2568C210.689 22.0532 210.345 21.8196 210.053 21.5559C209.764 21.2805 209.528 20.957 209.354 20.5855C209.191 20.214 209.109 19.7647 209.109 19.2377C209.109 18.1473 209.471 17.2968 210.193 16.6858C210.918 16.0748 211.912 15.7693 213.184 15.7693C213.918 15.7693 214.583 15.8533 215.177 16.0209C215.781 16.1767 216.226 16.3502 216.506 16.542L215.962 17.9617C215.718 17.8059 215.352 17.6562 214.862 17.5125C214.382 17.3566 213.823 17.2788 213.184 17.2788C212.857 17.2788 212.555 17.3148 212.275 17.3867C211.995 17.4586 211.75 17.5664 211.541 17.7102C211.331 17.8539 211.162 18.0395 211.032 18.2672C210.918 18.4829 210.857 18.7404 210.857 19.04C210.857 19.3756 210.921 19.6569 211.051 19.8846C211.178 20.1124 211.359 20.3159 211.591 20.4957C211.827 20.6633 212.094 20.8191 212.396 20.9629C212.71 21.1067 213.054 21.2504 213.429 21.3942C213.953 21.6099 214.43 21.8255 214.862 22.0412C215.304 22.2568 215.683 22.5143 215.997 22.8139C216.325 23.1135 216.576 23.4729 216.751 23.8922C216.926 24.2996 217.011 24.7966 217.011 25.3838C217.011 26.4741 216.62 27.3125 215.842 27.8997C215.072 28.4869 213.982 28.7803 212.571 28.7803C212.094 28.7803 211.652 28.7443 211.242 28.6724C210.848 28.6127 210.492 28.5408 210.177 28.4568C209.862 28.3611 209.589 28.265 209.354 28.1693C209.134 28.0614 208.959 27.9716 208.829 27.8997L209.338 26.462C209.605 26.6179 210.012 26.7914 210.561 26.9832C211.108 27.175 211.779 27.2707 212.571 27.2707ZM221.875 27.2707C223.649 27.2707 224.533 26.6476 224.533 25.4017C224.533 25.0185 224.453 24.695 224.288 24.4313C224.138 24.1559 223.929 23.9222 223.658 23.7304C223.391 23.5269 223.083 23.353 222.733 23.2093C222.396 23.0655 222.034 22.9217 221.649 22.778C221.208 22.6221 220.788 22.4486 220.391 22.2568C219.993 22.0532 219.65 21.8196 219.357 21.5559C219.068 21.2805 218.833 20.957 218.658 20.5855C218.496 20.214 218.413 19.7647 218.413 19.2377C218.413 18.1473 218.776 17.2968 219.497 16.6858C220.222 16.0748 221.217 15.7693 222.489 15.7693C223.223 15.7693 223.887 15.8533 224.482 16.0209C225.089 16.1767 225.531 16.3502 225.81 16.542L225.267 17.9617C225.022 17.8059 224.657 17.6562 224.167 17.5125C223.69 17.3566 223.131 17.2788 222.489 17.2788C222.161 17.2788 221.859 17.3148 221.579 17.3867C221.3 17.4586 221.055 17.5664 220.845 17.7102C220.635 17.8539 220.467 18.0395 220.336 18.2672C220.222 18.4829 220.162 18.7404 220.162 19.04C220.162 19.3756 220.228 19.6569 220.356 19.8846C220.483 20.1124 220.664 20.3159 220.896 20.4957C221.131 20.6633 221.398 20.8191 221.7 20.9629C222.015 21.1067 222.361 21.2504 222.733 21.3942C223.258 21.6099 223.735 21.8255 224.167 22.0412C224.609 22.2568 224.987 22.5143 225.302 22.8139C225.629 23.1135 225.88 23.4729 226.055 23.8922C226.23 24.2996 226.316 24.7966 226.316 25.3838C226.316 26.4741 225.928 27.3125 225.146 27.8997C224.377 28.4869 223.286 28.7803 221.875 28.7803C221.398 28.7803 220.956 28.7443 220.546 28.6724C220.152 28.6127 219.796 28.5408 219.481 28.4568C219.167 28.3611 218.893 28.265 218.658 28.1693C218.439 28.0614 218.264 27.9716 218.134 27.8997L218.642 26.462C218.909 26.6179 219.319 26.7914 219.866 26.9832C220.413 27.175 221.084 27.2707 221.875 27.2707ZM227.877 22.2748C227.877 21.2086 228.029 20.2679 228.331 19.4533C228.646 18.6388 229.066 17.9617 229.59 17.4226C230.127 16.8714 230.744 16.4581 231.443 16.1826C232.155 15.9072 232.906 15.7693 233.7 15.7693C234.479 15.7693 235.214 15.9072 235.903 16.1826C236.603 16.4581 237.213 16.8714 237.738 17.4226C238.262 17.9617 238.675 18.6388 238.981 19.4533C239.295 20.2679 239.451 21.2086 239.451 22.2748C239.451 23.341 239.295 24.2816 238.981 25.0962C238.675 25.9108 238.262 26.5937 237.738 27.1449C237.213 27.684 236.603 28.0915 235.903 28.3669C235.214 28.6424 234.479 28.7803 233.7 28.7803C232.906 28.7803 232.155 28.6424 231.443 28.3669C230.744 28.0915 230.127 27.684 229.59 27.1449C229.066 26.5937 228.646 25.9108 228.331 25.0962C228.029 24.2816 227.877 23.341 227.877 22.2748ZM229.66 22.2748C229.66 23.0296 229.755 23.7183 229.94 24.3414C230.127 24.9525 230.388 25.4736 230.728 25.9049C231.078 26.3362 231.497 26.6718 231.987 26.9113C232.486 27.139 233.046 27.2527 233.665 27.2527C234.282 27.2527 234.835 27.139 235.325 26.9113C235.814 26.6718 236.228 26.3362 236.568 25.9049C236.917 25.4736 237.184 24.9525 237.372 24.3414C237.556 23.7183 237.652 23.0296 237.652 22.2748C237.652 21.52 237.556 20.8371 237.372 20.2261C237.184 19.603 236.917 19.0759 236.568 18.6446C236.228 18.2133 235.814 17.884 235.325 17.6562C234.835 17.4167 234.282 17.2968 233.665 17.2968C233.046 17.2968 232.486 17.4167 231.987 17.6562C231.497 17.884 231.078 18.2133 230.728 18.6446C230.388 19.0759 230.127 19.603 229.94 20.2261C229.755 20.8371 229.66 21.52 229.66 22.2748ZM247.185 28.7803C246.333 28.7803 245.558 28.6365 244.858 28.349C244.159 28.0614 243.561 27.6422 243.059 27.091C242.557 26.5398 242.166 25.8631 241.886 25.0603C241.619 24.2457 241.485 23.3171 241.485 22.2748C241.485 21.2325 241.638 20.3101 241.94 19.5073C242.255 18.6927 242.674 18.0098 243.199 17.4586C243.723 16.9073 244.334 16.4881 245.033 16.2006C245.732 15.9131 246.479 15.7693 247.271 15.7693C247.773 15.7693 248.221 15.8052 248.619 15.8771C249.026 15.949 249.375 16.033 249.668 16.1287C249.97 16.2244 250.215 16.3205 250.402 16.4162C250.59 16.512 250.717 16.5839 250.787 16.6319L250.297 18.0696C250.192 17.9977 250.04 17.9199 249.843 17.8359C249.646 17.752 249.417 17.6683 249.159 17.5844C248.914 17.5004 248.641 17.4347 248.339 17.3867C248.047 17.3269 247.751 17.2968 247.446 17.2968C246.807 17.2968 246.228 17.4105 245.717 17.6383C245.205 17.866 244.766 18.1954 244.404 18.6267C244.044 19.058 243.765 19.585 243.564 20.2081C243.38 20.8191 243.285 21.5079 243.285 22.2748C243.285 23.0175 243.367 23.6945 243.529 24.3055C243.704 24.9165 243.962 25.4436 244.299 25.8869C244.639 26.3182 245.059 26.6538 245.558 26.8933C246.073 27.1328 246.667 27.2527 247.341 27.2527C248.123 27.2527 248.771 27.1688 249.283 27.0011C249.795 26.8335 250.18 26.6836 250.437 26.5519L250.873 27.9895C250.793 28.0493 250.647 28.1274 250.437 28.2232C250.227 28.3071 249.964 28.3908 249.649 28.4748C249.334 28.5587 248.969 28.6306 248.549 28.6904C248.129 28.7502 247.675 28.7803 247.185 28.7803ZM252.818 16.0568H254.512V28.5107H252.818V16.0568ZM265.607 28.5107C265.41 27.9716 265.222 27.4445 265.047 26.9293C264.872 26.4022 264.691 25.869 264.507 25.3299H259.017L257.914 28.5107H256.15C256.614 27.1929 257.052 25.9768 257.459 24.8626C257.866 23.7363 258.264 22.6701 258.648 21.6638C259.046 20.6574 259.437 19.699 259.821 18.7884C260.206 17.866 260.606 16.9554 261.026 16.0568H262.584C263.003 16.9554 263.404 17.866 263.788 18.7884C264.173 19.699 264.558 20.6574 264.942 21.6638C265.34 22.6701 265.74 23.7363 266.15 24.8626C266.557 25.9768 266.993 27.1929 267.46 28.5107H265.607ZM264.017 23.8922C263.642 22.8498 263.27 21.8435 262.898 20.873C262.536 19.8905 262.158 18.9501 261.76 18.0516C261.353 18.9501 260.962 19.8905 260.59 20.873C260.228 21.8435 259.866 22.8498 259.506 23.8922H264.017ZM276.075 16.0568V17.5664H272.263V28.5107H270.566V17.5664H266.754V16.0568H276.075ZM277.864 16.0568H279.559V28.5107H277.864V16.0568ZM282.07 22.2748C282.07 21.2086 282.223 20.2679 282.525 19.4533C282.839 18.6388 283.259 17.9617 283.783 17.4226C284.321 16.8714 284.937 16.4581 285.637 16.1826C286.349 15.9072 287.099 15.7693 287.894 15.7693C288.673 15.7693 289.407 15.9072 290.097 16.1826C290.796 16.4581 291.406 16.8714 291.931 17.4226C292.455 17.9617 292.869 18.6388 293.174 19.4533C293.489 20.2679 293.644 21.2086 293.644 22.2748C293.644 23.341 293.489 24.2816 293.174 25.0962C292.869 25.9108 292.455 26.5937 291.931 27.1449C291.406 27.684 290.796 28.0915 290.097 28.3669C289.407 28.6424 288.673 28.7803 287.894 28.7803C287.099 28.7803 286.349 28.6424 285.637 28.3669C284.937 28.0915 284.321 27.684 283.783 27.1449C283.259 26.5937 282.839 25.9108 282.525 25.0962C282.223 24.2816 282.07 23.341 282.07 22.2748ZM283.853 22.2748C283.853 23.0296 283.946 23.7183 284.133 24.3414C284.321 24.9525 284.581 25.4736 284.921 25.9049C285.271 26.3362 285.691 26.6718 286.18 26.9113C286.679 27.139 287.239 27.2527 287.859 27.2527C288.475 27.2527 289.029 27.139 289.518 26.9113C290.008 26.6718 290.421 26.3362 290.761 25.9049C291.111 25.4736 291.378 24.9525 291.565 24.3414C291.75 23.7183 291.845 23.0296 291.845 22.2748C291.845 21.52 291.75 20.8371 291.565 20.2261C291.378 19.603 291.111 19.0759 290.761 18.6446C290.421 18.2133 290.008 17.884 289.518 17.6562C289.029 17.4167 288.475 17.2968 287.859 17.2968C287.239 17.2968 286.679 17.4167 286.18 17.6562C285.691 17.884 285.271 18.2133 284.921 18.6446C284.581 19.0759 284.321 19.603 284.133 20.2261C283.946 20.8371 283.853 21.52 283.853 22.2748ZM304.471 28.5107C304.217 28.0673 303.918 27.5703 303.581 27.0191C303.254 26.4679 302.898 25.899 302.513 25.3119C302.129 24.7129 301.728 24.1078 301.309 23.4968C300.898 22.8858 300.492 22.2986 300.085 21.7357C299.675 21.1606 299.28 20.6214 298.896 20.1183C298.511 19.6151 298.155 19.1717 297.828 18.7884V28.5107H296.168V16.0568H297.513C298.063 16.6557 298.645 17.3566 299.261 18.1594C299.891 18.9502 300.511 19.7709 301.115 20.6215C301.734 21.4602 302.31 22.2869 302.847 23.1014C303.394 23.916 303.855 24.6411 304.227 25.2759V16.0568H305.889V28.5107H304.471ZM312.444 22.2748C312.444 21.2086 312.597 20.2679 312.899 19.4533C313.213 18.6388 313.633 17.9617 314.158 17.4226C314.695 16.8714 315.311 16.4581 316.011 16.1826C316.723 15.9072 317.473 15.7693 318.268 15.7693C319.047 15.7693 319.781 15.9072 320.471 16.1826C321.17 16.4581 321.78 16.8714 322.305 17.4226C322.829 17.9617 323.243 18.6388 323.548 19.4533C323.863 20.2679 324.018 21.2086 324.018 22.2748C324.018 23.341 323.863 24.2816 323.548 25.0962C323.243 25.9108 322.829 26.5937 322.305 27.1449C321.78 27.684 321.17 28.0915 320.471 28.3669C319.781 28.6424 319.047 28.7803 318.268 28.7803C317.473 28.7803 316.723 28.6424 316.011 28.3669C315.311 28.0915 314.695 27.684 314.158 27.1449C313.633 26.5937 313.213 25.9108 312.899 25.0962C312.597 24.2816 312.444 23.341 312.444 22.2748ZM314.227 22.2748C314.227 23.0296 314.323 23.7183 314.507 24.3414C314.695 24.9525 314.955 25.4736 315.296 25.9049C315.645 26.3362 316.065 26.6718 316.554 26.9113C317.053 27.139 317.613 27.2527 318.233 27.2527C318.85 27.2527 319.403 27.139 319.892 26.9113C320.382 26.6718 320.795 26.3362 321.135 25.9049C321.485 25.4736 321.752 24.9525 321.939 24.3414C322.124 23.7183 322.219 23.0296 322.219 22.2748C322.219 21.52 322.124 20.8371 321.939 20.2261C321.752 19.603 321.485 19.0759 321.135 18.6446C320.795 18.2133 320.382 17.884 319.892 17.6562C319.403 17.4167 318.85 17.2968 318.233 17.2968C317.613 17.2968 317.053 17.4167 316.554 17.6562C316.065 17.884 315.645 18.2133 315.296 18.6446C314.955 19.0759 314.695 19.603 314.507 20.2261C314.323 20.8371 314.227 21.52 314.227 22.2748ZM326.542 28.5107V16.0568H333.851V17.5484H328.237V21.3043H333.221V22.778H328.237V28.5107H326.542Z" fill="#AEC5CE"/>
<path d="M96.1576 36.4417C96.3669 36.8224 96.6054 37.2953 96.8727 37.8607C97.1517 38.4145 97.4364 39.0202 97.7272 39.6778C98.0294 40.3238 98.3259 40.9873 98.6166 41.6679C98.9074 42.3485 99.1804 42.9888 99.4363 43.5888C99.6922 42.9888 99.9652 42.3485 100.256 41.6679C100.547 40.9873 100.837 40.3238 101.128 39.6778C101.43 39.0202 101.715 38.4145 101.983 37.8607C102.262 37.2953 102.506 36.8224 102.715 36.4417H105.191C105.308 37.2377 105.412 38.1319 105.505 39.124C105.61 40.1048 105.697 41.1314 105.767 42.2044C105.848 43.2657 105.918 44.3329 105.976 45.4059C106.046 46.4788 106.104 47.4882 106.151 48.4343H103.5C103.465 47.2692 103.418 45.9999 103.36 44.6271C103.302 43.2543 103.215 41.8699 103.099 40.4738C102.889 40.9584 102.657 41.4949 102.401 42.0832C102.145 42.6716 101.89 43.26 101.634 43.8484C101.39 44.4368 101.151 45.0022 100.919 45.5443C100.686 46.0751 100.488 46.5307 100.326 46.9114H98.4248C98.2621 46.5307 98.0643 46.0751 97.8319 45.5443C97.5994 45.0022 97.3553 44.4368 97.0994 43.8484C96.8552 43.26 96.6054 42.6716 96.3495 42.0832C96.0936 41.4949 95.8612 40.9584 95.6519 40.4738C95.5355 41.8699 95.4483 43.2543 95.3903 44.6271C95.3323 45.9999 95.2856 47.2692 95.2508 48.4343H92.5999C92.6465 47.4882 92.6989 46.4788 92.7569 45.4059C92.8266 44.3329 92.8964 43.2657 92.9662 42.2044C93.0477 41.1314 93.1348 40.1048 93.2278 39.124C93.3324 38.1319 93.4428 37.2377 93.5591 36.4417H96.1576ZM108.6 48.4343V36.4417H116.762V38.7087H111.321V41.0622H116.152V43.2773H111.321V46.1673H117.163V48.4343H108.6ZM128.141 36.4417V38.7433H124.496V48.4343H121.775V38.7433H118.13V36.4417H128.141ZM136.55 48.4343C136.423 48.019 136.277 47.592 136.114 47.1537C135.963 46.7154 135.812 46.2768 135.661 45.8385H130.952C130.801 46.2768 130.644 46.7154 130.481 47.1537C130.33 47.592 130.191 48.019 130.063 48.4343H127.237C127.691 47.1421 128.121 45.948 128.528 44.8521C128.935 43.7562 129.33 42.7235 129.714 41.7544C130.109 40.7853 130.493 39.8681 130.865 39.0029C131.249 38.126 131.644 37.2723 132.051 36.4417H134.649C135.045 37.2723 135.434 38.126 135.818 39.0029C136.202 39.8681 136.585 40.7853 136.969 41.7544C137.364 42.7235 137.765 43.7562 138.172 44.8521C138.579 45.948 139.009 47.1421 139.463 48.4343H136.55ZM133.289 39.1586C133.231 39.3317 133.144 39.5683 133.028 39.8681C132.911 40.168 132.778 40.5141 132.626 40.9065C132.475 41.2988 132.307 41.7315 132.121 42.2044C131.946 42.6773 131.766 43.1735 131.58 43.6926H135.016C134.83 43.1735 134.649 42.6773 134.475 42.2044C134.301 41.7315 134.132 41.2988 133.969 40.9065C133.818 40.5141 133.685 40.168 133.568 39.8681C133.452 39.5683 133.359 39.3317 133.289 39.1586ZM145.056 48.5901C144.393 48.5901 143.73 48.5671 143.068 48.5208C142.417 48.4862 141.737 48.394 141.027 48.244V36.6147C141.585 36.5109 142.196 36.436 142.858 36.3898C143.521 36.3322 144.137 36.3032 144.707 36.3032C145.474 36.3032 146.178 36.3608 146.817 36.4763C147.468 36.5801 148.026 36.7648 148.491 37.0301C148.957 37.2953 149.317 37.6474 149.573 38.0857C149.84 38.5127 149.974 39.0432 149.974 39.6778C149.974 40.6353 149.509 41.391 148.579 41.9448C149.346 42.2333 149.869 42.6254 150.148 43.1216C150.427 43.6178 150.567 44.1772 150.567 44.8002C150.567 46.0578 150.102 47.0036 149.172 47.6383C148.253 48.2729 146.881 48.5901 145.056 48.5901ZM143.678 43.2081V46.3057C143.876 46.3287 144.091 46.346 144.323 46.3577C144.556 46.3693 144.812 46.375 145.091 46.375C145.905 46.375 146.561 46.2595 147.061 46.0289C147.561 45.7982 147.811 45.3713 147.811 44.7483C147.811 44.1945 147.602 43.8021 147.184 43.5715C146.765 43.3292 146.166 43.2081 145.387 43.2081H143.678ZM143.678 41.1487H145.004C145.841 41.1487 146.439 41.0449 146.8 40.8373C147.16 40.6179 147.34 40.2718 147.34 39.7989C147.34 39.3144 147.154 38.9739 146.782 38.7779C146.41 38.5819 145.864 38.4837 145.143 38.4837C144.911 38.4837 144.66 38.4894 144.393 38.501C144.126 38.501 143.887 38.5127 143.678 38.5356V41.1487ZM155.029 42.4293C155.029 43.0177 155.099 43.5485 155.238 44.0214C155.39 44.4944 155.599 44.904 155.866 45.2501C156.145 45.5846 156.482 45.8442 156.878 46.0289C157.273 46.2136 157.727 46.3057 158.238 46.3057C158.738 46.3057 159.186 46.2136 159.581 46.0289C159.988 45.8442 160.325 45.5846 160.592 45.2501C160.871 44.904 161.081 44.4944 161.22 44.0214C161.372 43.5485 161.447 43.0177 161.447 42.4293C161.447 41.841 161.372 41.3102 161.22 40.8373C161.081 40.3527 160.871 39.943 160.592 39.6086C160.325 39.2625 159.988 38.9972 159.581 38.8125C159.186 38.6278 158.738 38.5356 158.238 38.5356C157.727 38.5356 157.273 38.6338 156.878 38.8298C156.482 39.0145 156.145 39.2798 155.866 39.6259C155.599 39.9603 155.39 40.37 155.238 40.8546C155.099 41.3275 155.029 41.8526 155.029 42.4293ZM164.255 42.4293C164.255 43.456 164.098 44.3619 163.784 45.1463C163.482 45.9194 163.063 46.571 162.528 47.1018C161.993 47.621 161.354 48.0133 160.61 48.2786C159.877 48.5438 159.087 48.6766 158.238 48.6766C157.413 48.6766 156.634 48.5438 155.901 48.2786C155.169 48.0133 154.529 47.621 153.983 47.1018C153.436 46.571 153.006 45.9194 152.692 45.1463C152.378 44.3619 152.221 43.456 152.221 42.4293C152.221 41.4027 152.384 40.5028 152.71 39.7297C153.035 38.9453 153.471 38.2877 154.018 37.7569C154.576 37.2261 155.215 36.8281 155.936 36.5628C156.669 36.2976 157.436 36.1648 158.238 36.1648C159.063 36.1648 159.843 36.2976 160.575 36.5628C161.307 36.8281 161.947 37.2261 162.493 37.7569C163.04 38.2877 163.47 38.9453 163.784 39.7297C164.098 40.5028 164.255 41.4027 164.255 42.4293ZM174.597 46.1154V48.4343H166.523V36.4417H169.243V46.1154H174.597ZM176.349 36.4417H179.07V48.4343H176.349V36.4417ZM187.379 48.6766C185.414 48.6766 183.914 48.1345 182.879 47.0499C181.856 45.9653 181.344 44.4251 181.344 42.4293C181.344 41.4373 181.501 40.5547 181.815 39.7816C182.129 38.9972 182.559 38.3396 183.106 37.8088C183.652 37.2667 184.303 36.857 185.059 36.5801C185.815 36.3032 186.634 36.1648 187.518 36.1648C188.03 36.1648 188.495 36.2051 188.913 36.2859C189.332 36.3552 189.698 36.4417 190.012 36.5455C190.326 36.6377 190.588 36.7359 190.797 36.8397C191.006 36.9435 191.157 37.0244 191.25 37.082L190.465 39.2625C190.093 39.0664 189.657 38.899 189.158 38.7606C188.669 38.6222 188.111 38.5529 187.483 38.5529C187.065 38.5529 186.652 38.6222 186.245 38.7606C185.85 38.899 185.495 39.124 185.181 39.4355C184.879 39.7354 184.635 40.1277 184.449 40.6123C184.263 41.0968 184.17 41.6852 184.17 42.3774C184.17 42.9312 184.228 43.4504 184.344 43.9349C184.472 44.4078 184.669 44.8175 184.937 45.1636C185.216 45.5097 185.576 45.7866 186.018 45.9943C186.46 46.1903 186.995 46.2884 187.623 46.2884C188.018 46.2884 188.373 46.2655 188.687 46.2192C189.001 46.173 189.28 46.1211 189.524 46.0635C189.768 45.9943 189.983 45.9194 190.169 45.8385C190.355 45.7576 190.524 45.6828 190.675 45.6135L191.425 47.7767C191.041 48.0073 190.5 48.215 189.803 48.3997C189.105 48.5844 188.297 48.6766 187.379 48.6766ZM205.458 48.4343C205.33 48.019 205.185 47.592 205.022 47.1537C204.871 46.7154 204.719 46.2768 204.569 45.8385H199.86C199.709 46.2768 199.552 46.7154 199.389 47.1537C199.238 47.592 199.098 48.019 198.97 48.4343H196.145C196.599 47.1421 197.029 45.948 197.436 44.8521C197.843 43.7562 198.238 42.7235 198.622 41.7544C199.017 40.7853 199.4 39.8681 199.773 39.0029C200.156 38.126 200.551 37.2723 200.959 36.4417H203.557C203.952 37.2723 204.342 38.126 204.726 39.0029C205.109 39.8681 205.493 40.7853 205.877 41.7544C206.272 42.7235 206.673 43.7562 207.08 44.8521C207.487 45.948 207.917 47.1421 208.37 48.4343H205.458ZM202.197 39.1586C202.138 39.3317 202.051 39.5683 201.935 39.8681C201.819 40.168 201.685 40.5141 201.534 40.9065C201.383 41.2988 201.214 41.7315 201.028 42.2044C200.854 42.6773 200.673 43.1735 200.488 43.6926H203.923C203.737 43.1735 203.557 42.6773 203.383 42.2044C203.208 41.7315 203.04 41.2988 202.877 40.9065C202.726 40.5141 202.592 40.168 202.476 39.8681C202.359 39.5683 202.267 39.3317 202.197 39.1586ZM218.045 48.4343C217.265 47.0615 216.421 45.7057 215.514 44.3676C214.608 43.0294 213.644 41.7661 212.619 40.5777V48.4343H209.934V36.4417H212.15C212.534 36.8224 212.959 37.2896 213.422 37.8434C213.888 38.3972 214.357 38.9912 214.836 39.6259C215.324 40.2489 215.806 40.9008 216.282 41.5814C216.761 42.2506 217.208 42.8966 217.626 43.5196V36.4417H220.328V48.4343H218.045ZM225.839 46.2365C225.966 46.2482 226.111 46.2595 226.273 46.2711C226.447 46.2711 226.65 46.2711 226.885 46.2711C228.245 46.2711 229.251 45.9307 229.901 45.2501C230.563 44.5696 230.896 43.6291 230.896 42.4293C230.896 41.1717 230.582 40.2199 229.954 39.574C229.327 38.928 228.331 38.6049 226.971 38.6049C226.784 38.6049 226.593 38.6105 226.397 38.6222C226.197 38.6222 226.013 38.6338 225.839 38.6568V46.2365ZM233.702 42.4293C233.702 43.4677 233.541 44.3732 233.214 45.1463C232.888 45.9194 232.425 46.5597 231.819 47.0672C231.226 47.5747 230.5 47.9554 229.641 48.2093C228.778 48.4633 227.814 48.5901 226.746 48.5901C226.257 48.5901 225.687 48.5671 225.036 48.5208C224.383 48.4862 223.746 48.4054 223.118 48.2786V36.5974C223.746 36.482 224.396 36.4071 225.071 36.3725C225.756 36.3262 226.343 36.3032 226.831 36.3032C227.865 36.3032 228.803 36.4187 229.641 36.6493C230.487 36.88 231.213 37.2434 231.819 37.7396C232.425 38.2358 232.888 38.8701 233.214 39.6432C233.541 40.4163 233.702 41.3448 233.702 42.4293ZM244.195 48.5901C243.532 48.5901 242.869 48.5671 242.207 48.5208C241.553 48.4862 240.875 48.394 240.165 48.244V36.6147C240.723 36.5109 241.335 36.436 241.997 36.3898C242.66 36.3322 243.275 36.3032 243.846 36.3032C244.613 36.3032 245.314 36.3608 245.955 36.4763C246.605 36.5801 247.163 36.7648 247.629 37.0301C248.095 37.2953 248.453 37.6474 248.71 38.0857C248.976 38.5127 249.113 39.0432 249.113 39.6778C249.113 40.6353 248.647 41.391 247.718 41.9448C248.485 42.2333 249.008 42.6254 249.287 43.1216C249.566 43.6178 249.706 44.1772 249.706 44.8002C249.706 46.0578 249.24 47.0036 248.311 47.6383C247.391 48.2729 246.018 48.5901 244.195 48.5901ZM242.816 43.2081V46.3057C243.012 46.3287 243.228 46.346 243.462 46.3577C243.694 46.3693 243.951 46.375 244.23 46.375C245.041 46.375 245.698 46.2595 246.199 46.0289C246.7 45.7982 246.95 45.3713 246.95 44.7483C246.95 44.1945 246.741 43.8021 246.323 43.5715C245.904 43.3292 245.305 43.2081 244.525 43.2081H242.816ZM242.816 41.1487H244.141C244.978 41.1487 245.577 41.0449 245.939 40.8373C246.297 40.6179 246.478 40.2718 246.478 39.7989C246.478 39.3144 246.291 38.9739 245.92 38.7779C245.549 38.5819 245 38.4837 244.28 38.4837C244.049 38.4837 243.798 38.4894 243.532 38.501C243.263 38.501 243.025 38.5127 242.816 38.5356V41.1487ZM259.805 48.4343C259.675 48.019 259.529 47.592 259.367 47.1537C259.215 46.7154 259.066 46.2768 258.914 45.8385H254.205C254.053 46.2768 253.898 46.7154 253.736 47.1537C253.584 47.592 253.444 48.019 253.317 48.4343H250.492C250.946 47.1421 251.374 45.948 251.783 44.8521C252.189 43.7562 252.585 42.7235 252.969 41.7544C253.362 40.7853 253.745 39.8681 254.12 39.0029C254.503 38.126 254.897 37.2723 255.306 36.4417H257.902C258.299 37.2723 258.689 38.126 259.073 39.0029C259.456 39.8681 259.84 40.7853 260.224 41.7544C260.617 42.7235 261.019 43.7562 261.425 44.8521C261.831 45.948 262.262 47.1421 262.716 48.4343H259.805ZM256.542 39.1586C256.485 39.3317 256.396 39.5683 256.282 39.8681C256.165 40.168 256.032 40.5141 255.879 40.9065C255.727 41.2988 255.559 41.7315 255.375 42.2044C255.201 42.6773 255.02 43.1735 254.833 43.6926H258.27C258.083 43.1735 257.902 42.6773 257.728 42.2044C257.554 41.7315 257.386 41.2988 257.224 40.9065C257.072 40.5141 256.939 40.168 256.821 39.8681C256.704 39.5683 256.612 39.3317 256.542 39.1586ZM267.821 36.3032C269.635 36.3032 271.024 36.6264 271.987 37.2723C272.955 37.907 273.437 38.899 273.437 40.2489C273.437 41.0912 273.24 41.7774 272.844 42.3082C272.46 42.8274 271.902 43.237 271.169 43.5369C271.414 43.8367 271.67 44.1828 271.937 44.5752C272.203 44.9559 272.466 45.3596 272.72 45.7866C272.989 46.2019 273.243 46.6402 273.487 47.1018C273.731 47.5517 273.96 47.996 274.169 48.4343H271.115C270.897 48.042 270.668 47.6439 270.437 47.2402C270.215 46.8366 269.983 46.4442 269.739 46.0635C269.508 45.6828 269.273 45.325 269.042 44.9905C268.81 44.6444 268.576 44.3329 268.344 44.0561H267V48.4343H264.279V36.6147C264.872 36.4993 265.484 36.4187 266.112 36.3725C266.752 36.3262 267.32 36.3032 267.821 36.3032ZM267.976 38.6049C267.78 38.6049 267.599 38.6105 267.437 38.6222C267.285 38.6338 267.139 38.6451 267 38.6568V41.9102H267.767C268.791 41.9102 269.524 41.7834 269.964 41.5295C270.408 41.2755 270.627 40.8429 270.627 40.2316C270.627 39.6432 270.402 39.2278 269.949 38.9856C269.508 38.7317 268.848 38.6049 267.976 38.6049ZM275.913 36.4417H278.634V48.4343H275.913V36.4417ZM289.522 48.4343C289.396 48.019 289.25 47.592 289.088 47.1537C288.936 46.7154 288.784 46.2768 288.635 45.8385H283.926C283.774 46.2768 283.618 46.7154 283.453 47.1537C283.304 47.592 283.165 48.019 283.035 48.4343H280.21C280.663 47.1421 281.094 45.948 281.5 44.8521C281.909 43.7562 282.302 42.7235 282.686 41.7544C283.082 40.7853 283.466 39.8681 283.837 39.0029C284.221 38.126 284.617 37.2723 285.023 36.4417H287.623C288.016 37.2723 288.406 38.126 288.79 39.0029C289.174 39.8681 289.557 40.7853 289.941 41.7544C290.337 42.7235 290.737 43.7562 291.146 44.8521C291.552 45.948 291.983 47.1421 292.436 48.4343H289.522ZM286.263 39.1586C286.202 39.3317 286.117 39.5683 285.999 39.8681C285.885 40.168 285.749 40.5141 285.6 40.9065C285.448 41.2988 285.28 41.7315 285.093 42.2044C284.918 42.6773 284.738 43.1735 284.554 43.6926H287.988C287.804 43.1735 287.623 42.6773 287.449 42.2044C287.274 41.7315 287.106 41.2988 286.941 40.9065C286.792 40.5141 286.656 40.168 286.542 39.8681C286.424 39.5683 286.332 39.3317 286.263 39.1586ZM301.534 36.4417V38.7433H297.887V48.4343H295.166V38.7433H291.523V36.4417H301.534ZM306.823 36.3032C308.636 36.3032 310.025 36.6264 310.989 37.2723C311.956 37.907 312.438 38.899 312.438 40.2489C312.438 41.0912 312.238 41.7774 311.845 42.3082C311.462 42.8274 310.904 43.237 310.171 43.5369C310.415 43.8367 310.669 44.1828 310.938 44.5752C311.205 44.9559 311.468 45.3596 311.722 45.7866C311.991 46.2019 312.245 46.6402 312.489 47.1018C312.733 47.5517 312.961 47.996 313.171 48.4343H310.117C309.898 48.042 309.67 47.6439 309.439 47.2402C309.217 46.8366 308.985 46.4442 308.741 46.0635C308.506 45.6828 308.275 45.325 308.043 44.9905C307.809 44.6444 307.577 44.3329 307.346 44.0561H306.001V48.4343H303.281V36.6147C303.874 36.4993 304.486 36.4187 305.113 36.3725C305.751 36.3262 306.322 36.3032 306.823 36.3032ZM306.978 38.6049C306.781 38.6049 306.601 38.6105 306.439 38.6222C306.287 38.6338 306.141 38.6451 306.001 38.6568V41.9102H306.769C307.793 41.9102 308.525 41.7834 308.966 41.5295C309.41 41.2755 309.629 40.8429 309.629 40.2316C309.629 39.6432 309.404 39.2278 308.95 38.9856C308.506 38.7317 307.85 38.6049 306.978 38.6049ZM314.915 36.4417H317.635V48.4343H314.915V36.4417ZM325.943 48.6766C323.977 48.6766 322.477 48.1345 321.443 47.0499C320.419 45.9653 319.909 44.4251 319.909 42.4293C319.909 41.4373 320.064 40.5547 320.378 39.7816C320.692 38.9972 321.123 38.3396 321.669 37.8088C322.217 37.2667 322.867 36.857 323.622 36.5801C324.38 36.3032 325.198 36.1648 326.082 36.1648C326.593 36.1648 327.059 36.2051 327.478 36.2859C327.896 36.3552 328.261 36.4417 328.575 36.5455C328.889 36.6377 329.152 36.7359 329.361 36.8397C329.57 36.9435 329.723 37.0244 329.815 37.082L329.028 39.2625C328.657 39.0664 328.223 38.899 327.722 38.7606C327.233 38.6222 326.675 38.5529 326.048 38.5529C325.629 38.5529 325.217 38.6222 324.808 38.7606C324.415 38.899 324.059 39.124 323.745 39.4355C323.444 39.7354 323.2 40.1277 323.013 40.6123C322.826 41.0968 322.734 41.6852 322.734 42.3774C322.734 42.9312 322.791 43.4504 322.908 43.9349C323.035 44.4078 323.235 44.8175 323.501 45.1636C323.78 45.5097 324.142 45.7866 324.583 45.9943C325.023 46.1903 325.559 46.2884 326.187 46.2884C326.583 46.2884 326.935 46.2655 327.249 46.2192C327.563 46.173 327.842 46.1211 328.086 46.0635C328.331 45.9943 328.546 45.9194 328.733 45.8385C328.92 45.7576 329.088 45.6828 329.237 45.6135L329.989 47.7767C329.605 48.0073 329.063 48.215 328.365 48.3997C327.668 48.5844 326.862 48.6766 325.943 48.6766ZM95.7077 67.0628C97.4751 67.0628 98.3585 66.4628 98.3585 65.263C98.3585 64.8939 98.2774 64.5825 98.1144 64.3285C97.9634 64.0633 97.7542 63.8383 97.4866 63.6536C97.2192 63.4576 96.911 63.2902 96.5622 63.1518C96.2252 63.0133 95.8646 62.8749 95.481 62.7364C95.0393 62.5864 94.6207 62.4193 94.2253 62.2346C93.8302 62.0386 93.4871 61.8136 93.1964 61.5597C92.9059 61.2944 92.6732 60.9829 92.4988 60.6252C92.3361 60.2674 92.2546 59.8348 92.2546 59.3273C92.2546 58.2773 92.6151 57.4583 93.3359 56.8699C94.0569 56.2815 95.051 55.9873 96.3181 55.9873C97.0506 55.9873 97.7133 56.0682 98.3062 56.2296C98.9109 56.3797 99.3526 56.5468 99.6316 56.7315L99.091 58.0986C98.8469 57.9485 98.4806 57.8044 97.9923 57.666C97.5157 57.5159 96.9577 57.441 96.3181 57.441C95.9928 57.441 95.6903 57.4756 95.4112 57.5448C95.1322 57.614 94.888 57.7179 94.6787 57.8563C94.4695 57.9948 94.3011 58.1735 94.173 58.3928C94.0569 58.6004 93.9986 58.8484 93.9986 59.1369C93.9986 59.4601 94.0626 59.731 94.1904 59.9503C94.3185 60.1696 94.4986 60.3656 94.7311 60.5387C94.9638 60.7001 95.2311 60.8501 95.5333 60.9886C95.8472 61.127 96.1903 61.2655 96.5622 61.4039C97.0854 61.6116 97.5623 61.8193 97.9923 62.0269C98.4343 62.2346 98.812 62.4825 99.1259 62.7711C99.4515 63.0596 99.7014 63.4057 99.8758 63.8094C100.05 64.2017 100.137 64.6803 100.137 65.2457C100.137 66.2957 99.748 67.1031 98.9689 67.6685C98.2016 68.2339 97.1146 68.5164 95.7077 68.5164C95.2311 68.5164 94.7894 68.4818 94.3823 68.4126C93.9872 68.355 93.6324 68.2858 93.3184 68.2049C93.0045 68.1128 92.7315 68.0202 92.4988 67.9281C92.2781 67.8242 92.1037 67.7377 91.9756 67.6685L92.4813 66.284C92.749 66.4341 93.1558 66.6012 93.7021 66.7859C94.2488 66.9706 94.9172 67.0628 95.7077 67.0628ZM106.681 68.5164C105.891 68.5164 105.205 68.3953 104.624 68.153C104.042 67.9108 103.565 67.582 103.193 67.1666C102.822 66.7397 102.542 66.2378 102.356 65.6611C102.182 65.0843 102.095 64.4613 102.095 63.7921V56.2642H103.786V63.6017C103.786 64.8014 104.054 65.6727 104.589 66.2148C105.124 66.757 105.821 67.0282 106.681 67.0282C107.112 67.0282 107.501 66.9646 107.85 66.8378C108.21 66.6994 108.518 66.4917 108.774 66.2148C109.03 65.9379 109.228 65.5862 109.367 65.1592C109.507 64.7209 109.576 64.2017 109.576 63.6017V56.2642H111.268V63.7921C111.268 64.4613 111.175 65.0843 110.989 65.6611C110.815 66.2378 110.536 66.7397 110.152 67.1666C109.78 67.582 109.303 67.9108 108.722 68.153C108.152 68.3953 107.472 68.5164 106.681 68.5164ZM120.101 63.2383C120.287 63.4689 120.519 63.7748 120.798 64.1555C121.089 64.5246 121.386 64.9399 121.688 65.4015C121.99 65.8514 122.287 66.3243 122.577 66.8205C122.879 67.3167 123.135 67.7953 123.345 68.2569H121.496C121.264 67.8186 121.008 67.3743 120.729 66.9243C120.461 66.4744 120.188 66.0474 119.909 65.6437C119.63 65.2284 119.351 64.842 119.072 64.4843C118.805 64.1265 118.56 63.815 118.339 63.5498C118.188 63.5614 118.031 63.5671 117.869 63.5671C117.717 63.5671 117.56 63.5671 117.398 63.5671H115.88V68.2569H114.189V56.4373C114.665 56.3218 115.195 56.2469 115.776 56.2123C116.369 56.1661 116.909 56.1431 117.398 56.1431C119.095 56.1431 120.386 56.4602 121.269 57.0949C122.164 57.7295 122.612 58.6753 122.612 59.933C122.612 60.729 122.397 61.4096 121.967 61.975C121.548 62.5404 120.926 62.9614 120.101 63.2383ZM117.537 57.614C116.816 57.614 116.264 57.6313 115.88 57.666V62.1827H117.084C117.665 62.1827 118.188 62.1537 118.653 62.0961C119.118 62.0386 119.508 61.9287 119.822 61.7673C120.147 61.6059 120.397 61.381 120.572 61.0924C120.746 60.7926 120.833 60.4002 120.833 59.9157C120.833 59.4657 120.746 59.0907 120.572 58.7908C120.397 58.491 120.159 58.2543 119.857 58.0813C119.566 57.9082 119.217 57.7871 118.81 57.7179C118.415 57.6487 117.991 57.614 117.537 57.614ZM132.346 62.3557H134.038V67.9627C133.899 68.0089 133.695 68.0608 133.428 68.1184C133.172 68.176 132.87 68.2339 132.521 68.2915C132.184 68.349 131.812 68.3953 131.405 68.4299C130.998 68.4762 130.585 68.4991 130.166 68.4991C129.318 68.4991 128.545 68.3607 127.847 68.0838C127.149 67.8069 126.551 67.4032 126.051 66.8724C125.551 66.3416 125.161 65.69 124.882 64.9169C124.615 64.1438 124.481 63.2556 124.481 62.2519C124.481 61.2482 124.632 60.3599 124.935 59.5869C125.248 58.8025 125.667 58.1448 126.19 57.614C126.713 57.0832 127.324 56.6796 128.021 56.4027C128.731 56.1258 129.486 55.9873 130.289 55.9873C130.835 55.9873 131.317 56.0219 131.736 56.0912C132.166 56.1604 132.533 56.2413 132.835 56.3334C133.137 56.4256 133.381 56.5181 133.567 56.6103C133.765 56.7025 133.899 56.7717 133.968 56.818L133.428 58.2197C133.091 58.0004 132.643 57.8217 132.085 57.6833C131.527 57.5332 130.957 57.4583 130.376 57.4583C129.76 57.4583 129.196 57.5678 128.684 57.7871C128.184 58.0064 127.754 58.3236 127.394 58.7389C127.045 59.1542 126.772 59.6617 126.574 60.2618C126.376 60.8502 126.277 61.5134 126.277 62.2519C126.277 62.9671 126.359 63.619 126.522 64.2074C126.696 64.7958 126.952 65.3033 127.289 65.7303C127.638 66.1456 128.062 66.4687 128.562 66.6994C129.074 66.93 129.672 67.0455 130.358 67.0455C130.847 67.0455 131.259 67.0225 131.596 66.9763C131.945 66.9187 132.195 66.8668 132.346 66.8205V62.3557ZM136.687 68.2569V56.2642H144.064V57.7006H138.378V61.2655H143.436V62.6672H138.378V66.8205H144.5V68.2569H136.687ZM145.668 62.2519C145.668 61.2252 145.819 60.3193 146.121 59.5349C146.435 58.7505 146.854 58.0986 147.377 57.5794C147.912 57.0486 148.528 56.6506 149.226 56.3854C149.935 56.1201 150.684 55.9873 151.475 55.9873C152.254 55.9873 152.987 56.1201 153.673 56.3854C154.37 56.6506 154.981 57.0486 155.504 57.5794C156.027 58.0986 156.44 58.7505 156.742 59.5349C157.056 60.3193 157.213 61.2252 157.213 62.2519C157.213 63.2786 157.056 64.1844 156.742 64.9688C156.44 65.7532 156.027 66.4108 155.504 66.9417C154.981 67.4608 154.37 67.8532 153.673 68.1184C152.987 68.3837 152.254 68.5164 151.475 68.5164C150.684 68.5164 149.935 68.3837 149.226 68.1184C148.528 67.8532 147.912 67.4608 147.377 66.9417C146.854 66.4108 146.435 65.7532 146.121 64.9688C145.819 64.1844 145.668 63.2786 145.668 62.2519ZM147.447 62.2519C147.447 62.9787 147.54 63.642 147.726 64.242C147.912 64.8304 148.173 65.3322 148.511 65.7476C148.859 66.1629 149.278 66.486 149.766 66.7167C150.266 66.936 150.824 67.0455 151.44 67.0455C152.056 67.0455 152.609 66.936 153.097 66.7167C153.585 66.486 153.998 66.1629 154.335 65.7476C154.684 65.3322 154.951 64.8304 155.138 64.242C155.323 63.642 155.417 62.9787 155.417 62.2519C155.417 61.5251 155.323 60.8675 155.138 60.2791C154.951 59.679 154.684 59.1715 154.335 58.7562C153.998 58.3409 153.585 58.0237 153.097 57.8044C152.609 57.5738 152.056 57.4583 151.44 57.4583C150.824 57.4583 150.266 57.5738 149.766 57.8044C149.278 58.0237 148.859 58.3409 148.511 58.7562C148.173 59.1715 147.912 59.679 147.726 60.2791C147.54 60.8675 147.447 61.5251 147.447 62.2519ZM168.014 68.2569C167.758 67.8299 167.462 67.3513 167.124 66.8205C166.799 66.2897 166.444 65.7419 166.06 65.1765C165.677 64.5998 165.276 64.017 164.857 63.4287C164.45 62.8403 164.043 62.2749 163.636 61.7327C163.229 61.179 162.834 60.6598 162.45 60.1752C162.067 59.6907 161.712 59.2637 161.386 58.8946V68.2569H159.73V56.2642H161.073C161.619 56.841 162.2 57.5159 162.817 58.289C163.444 59.0504 164.061 59.8408 164.665 60.6598C165.282 61.4675 165.857 62.2635 166.392 63.0479C166.938 63.8323 167.397 64.5305 167.769 65.1419V56.2642H169.426V68.2569H168.014ZM175.226 67.0628C176.993 67.0628 177.877 66.4628 177.877 65.263C177.877 64.8939 177.795 64.5825 177.632 64.3285C177.481 64.0633 177.272 63.8383 177.005 63.6536C176.737 63.4576 176.429 63.2902 176.08 63.1518C175.743 63.0133 175.383 62.8749 174.999 62.7364C174.557 62.5864 174.139 62.4193 173.743 62.2346C173.348 62.0386 173.005 61.8136 172.714 61.5597C172.424 61.2944 172.191 60.9829 172.017 60.6252C171.854 60.2674 171.773 59.8348 171.773 59.3273C171.773 58.2773 172.133 57.4583 172.854 56.8699C173.575 56.2815 174.569 55.9873 175.836 55.9873C176.569 55.9873 177.231 56.0682 177.824 56.2296C178.429 56.3797 178.871 56.5468 179.15 56.7315L178.609 58.0986C178.365 57.9485 177.999 57.8044 177.51 57.666C177.034 57.5159 176.476 57.441 175.836 57.441C175.51 57.441 175.208 57.4756 174.929 57.5448C174.65 57.614 174.406 57.7179 174.197 57.8563C173.987 57.9948 173.819 58.1735 173.691 58.3928C173.575 58.6004 173.517 58.8484 173.517 59.1369C173.517 59.4601 173.581 59.731 173.708 59.9503C173.836 60.1696 174.017 60.3656 174.249 60.5387C174.481 60.7001 174.749 60.8501 175.051 60.9886C175.365 61.127 175.708 61.2655 176.08 61.4039C176.603 61.6116 177.08 61.8193 177.51 62.0269C177.952 62.2346 178.33 62.4825 178.644 62.7711C178.97 63.0596 179.219 63.4057 179.394 63.8094C179.568 64.2017 179.655 64.6803 179.655 65.2457C179.655 66.2957 179.266 67.1031 178.487 67.6685C177.72 68.2339 176.633 68.5164 175.226 68.5164C174.749 68.5164 174.307 68.4818 173.9 68.4126C173.505 68.355 173.15 68.2858 172.836 68.2049C172.523 68.1128 172.249 68.0202 172.017 67.9281C171.796 67.8242 171.621 67.7377 171.494 67.6685L171.999 66.284C172.267 66.4341 172.674 66.6012 173.22 66.7859C173.766 66.9706 174.435 67.0628 175.226 67.0628Z" fill="white"/>
</svg>
