<svg width="28" height="28" viewBox="0 0 28 28" fill="none" xmlns="http://www.w3.org/2000/svg">
<path d="M23.8802 15.3332C23.5869 15.3332 23.2802 15.2398 22.9869 15.1732C22.3933 15.0405 21.8097 14.8667 21.2402 14.6532C20.6217 14.4281 19.9418 14.4398 19.3313 14.686C18.7209 14.9321 18.223 15.3954 17.9336 15.9865L17.6402 16.5998C16.3453 15.8654 15.1491 14.9694 14.0802 13.9332C13.044 12.8643 12.148 11.6681 11.4136 10.3732L12.0269 10.0932C12.6181 9.80373 13.0813 9.30588 13.3274 8.69543C13.5736 8.08497 13.5853 7.40505 13.3602 6.7865C13.1485 6.21188 12.9748 5.62394 12.8402 5.0265C12.7736 4.73317 12.7202 4.4265 12.6802 4.13317C12.5183 3.194 12.0264 2.34349 11.2931 1.73482C10.5597 1.12615 9.63316 0.799316 8.68023 0.81317H4.6669C4.10323 0.812432 3.54576 0.930835 3.03105 1.16062C2.51634 1.3904 2.05601 1.72637 1.68023 2.1465C1.29666 2.57804 1.01105 3.0875 0.843034 3.63988C0.675018 4.19227 0.628575 4.77447 0.706896 5.3465C1.43168 10.896 3.96718 16.0514 7.92023 20.0132C11.882 23.9662 17.0374 26.5017 22.5869 27.2265C22.76 27.2397 22.9338 27.2397 23.1069 27.2265C24.0901 27.2279 25.0394 26.8672 25.7736 26.2132C26.1937 25.8374 26.5297 25.3771 26.7595 24.8623C26.9892 24.3476 27.1076 23.7902 27.1069 23.2265V19.2265C27.0997 18.3052 26.7747 17.4147 26.1868 16.7053C25.5989 15.9959 24.7842 15.5113 23.8802 15.3332ZM24.5336 23.3332C24.5331 23.5192 24.4937 23.7031 24.418 23.8731C24.3422 24.043 24.2317 24.1952 24.0936 24.3198C23.9474 24.453 23.7735 24.552 23.5844 24.6096C23.3953 24.6673 23.1958 24.6821 23.0002 24.6532C18.0246 24.0033 13.4006 21.7358 9.84023 18.1998C6.27686 14.6365 3.9896 9.99633 3.33356 4.99984C3.3046 4.80428 3.31948 4.60473 3.37713 4.41564C3.43478 4.22655 3.53376 4.05264 3.6669 3.9065C3.79306 3.76671 3.9474 3.65522 4.11976 3.57938C4.29212 3.50354 4.47859 3.46507 4.6669 3.4665H8.6669C8.97511 3.45897 9.27641 3.55848 9.51952 3.7481C9.76262 3.93772 9.93249 4.20573 10.0002 4.5065C10.0002 4.8665 10.1202 5.23984 10.2002 5.59984C10.3543 6.29832 10.5593 6.9846 10.8136 7.65317L8.9469 8.53317C8.62605 8.68046 8.37671 8.94897 8.25356 9.27984C8.12021 9.60445 8.12021 9.96856 8.25356 10.2932C10.1725 14.4035 13.4766 17.7076 17.5869 19.6265C17.9115 19.7599 18.2756 19.7599 18.6002 19.6265C18.9311 19.5034 19.1996 19.254 19.3469 18.9332L20.1869 17.0665C20.8748 17.3173 21.5785 17.5222 22.2936 17.6798C22.6402 17.7598 23.0136 17.8265 23.3736 17.8798C23.6743 17.9476 23.9423 18.1175 24.132 18.3606C24.3216 18.6037 24.4211 18.905 24.4136 19.2132L24.5336 23.3332ZM16.6669 0.666504C16.3602 0.666504 16.0402 0.666504 15.7336 0.666504C15.3799 0.696562 15.0527 0.865864 14.8239 1.13717C14.5952 1.40847 14.4835 1.75955 14.5136 2.11317C14.5436 2.46679 14.7129 2.79399 14.9842 3.02279C15.2555 3.25158 15.6066 3.36323 15.9602 3.33317H16.6669C18.7886 3.33317 20.8235 4.17603 22.3238 5.67632C23.824 7.17661 24.6669 9.21144 24.6669 11.3332C24.6669 11.5732 24.6669 11.7998 24.6669 12.0398C24.6373 12.3916 24.7485 12.7407 24.9759 13.0106C25.2034 13.2806 25.5286 13.4493 25.8802 13.4798H25.9869C26.3207 13.4812 26.6428 13.3573 26.8897 13.1327C27.1366 12.908 27.2902 12.5989 27.3202 12.2665C27.3202 11.9598 27.3202 11.6398 27.3202 11.3332C27.3202 8.5065 26.1983 5.79541 24.2008 3.79541C22.2032 1.7954 19.4936 0.670037 16.6669 0.666504ZM19.3336 11.3332C19.3336 11.6868 19.474 12.0259 19.7241 12.276C19.9741 12.526 20.3133 12.6665 20.6669 12.6665C21.0205 12.6665 21.3597 12.526 21.6097 12.276C21.8598 12.0259 22.0002 11.6868 22.0002 11.3332C22.0002 9.91868 21.4383 8.56213 20.4381 7.56193C19.4379 6.56174 18.0814 5.99984 16.6669 5.99984C16.3133 5.99984 15.9741 6.14031 15.7241 6.39036C15.474 6.64041 15.3336 6.97955 15.3336 7.33317C15.3336 7.68679 15.474 8.02593 15.7241 8.27598C15.9741 8.52603 16.3133 8.6665 16.6669 8.6665C17.3741 8.6665 18.0524 8.94746 18.5525 9.44755C19.0526 9.94765 19.3336 10.6259 19.3336 11.3332Z" fill="#AEC5CE"/>
</svg>
