<svg width="22" height="28" viewBox="0 0 22 28" fill="none" xmlns="http://www.w3.org/2000/svg">
<path d="M11.0002 0.666504C8.17119 0.666504 5.45808 1.79031 3.45769 3.7907C1.4573 5.79109 0.333496 8.50419 0.333496 11.3332C0.333496 18.5332 9.7335 26.6665 10.1335 27.0132C10.375 27.2197 10.6824 27.3333 11.0002 27.3333C11.318 27.3333 11.6253 27.2197 11.8668 27.0132C12.3335 26.6665 21.6668 18.5332 21.6668 11.3332C21.6668 8.50419 20.543 5.79109 18.5426 3.7907C16.5422 1.79031 13.8291 0.666504 11.0002 0.666504ZM11.0002 24.1998C8.16016 21.5332 3.00016 15.7865 3.00016 11.3332C3.00016 9.21144 3.84302 7.17661 5.34331 5.67632C6.8436 4.17603 8.87843 3.33317 11.0002 3.33317C13.1219 3.33317 15.1567 4.17603 16.657 5.67632C18.1573 7.17661 19.0002 9.21144 19.0002 11.3332C19.0002 15.7865 13.8402 21.5465 11.0002 24.1998ZM11.0002 5.99984C9.94533 5.99984 8.91418 6.31263 8.03712 6.89867C7.16006 7.4847 6.47647 8.31765 6.0728 9.29219C5.66914 10.2667 5.56352 11.3391 5.76931 12.3737C5.97509 13.4082 6.48305 14.3585 7.22893 15.1044C7.97481 15.8503 8.92512 16.3582 9.95968 16.564C10.9942 16.7698 12.0666 16.6642 13.0411 16.2605C14.0157 15.8569 14.8486 15.1733 15.4347 14.2962C16.0207 13.4191 16.3335 12.388 16.3335 11.3332C16.3335 9.91868 15.7716 8.56213 14.7714 7.56193C13.7712 6.56174 12.4146 5.99984 11.0002 5.99984ZM11.0002 13.9998C10.4727 13.9998 9.95717 13.8434 9.51864 13.5504C9.08011 13.2574 8.73832 12.8409 8.53648 12.3537C8.33465 11.8664 8.28184 11.3302 8.38473 10.8129C8.48763 10.2956 8.7416 9.82049 9.11454 9.44755C9.48748 9.07461 9.96264 8.82064 10.4799 8.71774C10.9972 8.61485 11.5334 8.66766 12.0207 8.86949C12.5079 9.07133 12.9244 9.41312 13.2174 9.85165C13.5104 10.2902 13.6668 10.8058 13.6668 11.3332C13.6668 12.0404 13.3859 12.7187 12.8858 13.2188C12.3857 13.7189 11.7074 13.9998 11.0002 13.9998Z" fill="#AEC5CE"/>
</svg>
