<svg width="14" height="12" viewBox="0 0 14 12" fill="none" xmlns="http://www.w3.org/2000/svg">
<path d="M11.6668 0.666504H2.3335C1.80306 0.666504 1.29436 0.877218 0.919283 1.25229C0.54421 1.62736 0.333496 2.13607 0.333496 2.6665V9.33317C0.333496 9.8636 0.54421 10.3723 0.919283 10.7474C1.29436 11.1225 1.80306 11.3332 2.3335 11.3332H11.6668C12.1973 11.3332 12.706 11.1225 13.081 10.7474C13.4561 10.3723 13.6668 9.8636 13.6668 9.33317V2.6665C13.6668 2.13607 13.4561 1.62736 13.081 1.25229C12.706 0.877218 12.1973 0.666504 11.6668 0.666504ZM11.3935 1.99984L7.4735 5.91984C7.41152 5.98232 7.33779 6.03192 7.25655 6.06576C7.17531 6.09961 7.08817 6.11704 7.00016 6.11704C6.91216 6.11704 6.82502 6.09961 6.74378 6.06576C6.66254 6.03192 6.5888 5.98232 6.52683 5.91984L2.60683 1.99984H11.3935ZM12.3335 9.33317C12.3335 9.50998 12.2633 9.67955 12.1382 9.80457C12.0132 9.9296 11.8436 9.99984 11.6668 9.99984H2.3335C2.15669 9.99984 1.98712 9.9296 1.86209 9.80457C1.73707 9.67955 1.66683 9.50998 1.66683 9.33317V2.93984L5.58683 6.85984C5.96183 7.23437 6.47016 7.44474 7.00016 7.44474C7.53016 7.44474 8.0385 7.23437 8.4135 6.85984L12.3335 2.93984V9.33317Z" fill="white"/>
</svg>
