<svg width="12" height="14" viewBox="0 0 12 14" fill="none" xmlns="http://www.w3.org/2000/svg">
<path d="M5.99984 0.333496C4.58535 0.333496 3.2288 0.895399 2.2286 1.89559C1.22841 2.89579 0.666504 4.25234 0.666504 5.66683C0.666504 9.26683 5.3665 13.3335 5.5665 13.5068C5.68726 13.6101 5.84094 13.6669 5.99984 13.6669C6.15874 13.6669 6.31242 13.6101 6.43317 13.5068C6.6665 13.3335 11.3332 9.26683 11.3332 5.66683C11.3332 4.25234 10.7713 2.89579 9.77107 1.89559C8.77088 0.895399 7.41432 0.333496 5.99984 0.333496ZM5.99984 12.1002C4.57984 10.7668 1.99984 7.8935 1.99984 5.66683C1.99984 4.60596 2.42126 3.58855 3.17141 2.8384C3.92156 2.08826 4.93897 1.66683 5.99984 1.66683C7.0607 1.66683 8.07812 2.08826 8.82826 2.8384C9.57841 3.58855 9.99984 4.60596 9.99984 5.66683C9.99984 7.8935 7.41984 10.7735 5.99984 12.1002ZM5.99984 3.00016C5.47242 3.00016 4.95685 3.15656 4.51832 3.44958C4.07979 3.74259 3.73799 4.15907 3.53616 4.64634C3.33432 5.13361 3.28152 5.66979 3.38441 6.18707C3.4873 6.70435 3.74128 7.17951 4.11422 7.55245C4.48716 7.92539 4.96231 8.17936 5.4796 8.28226C5.99688 8.38515 6.53306 8.33234 7.02033 8.13051C7.5076 7.92868 7.92407 7.58688 8.21709 7.14835C8.51011 6.70982 8.6665 6.19425 8.6665 5.66683C8.6665 4.95959 8.38555 4.28131 7.88546 3.78121C7.38536 3.28111 6.70708 3.00016 5.99984 3.00016ZM5.99984 7.00016C5.73613 7.00016 5.47834 6.92196 5.25908 6.77546C5.03981 6.62895 4.86891 6.42071 4.768 6.17707C4.66708 5.93344 4.64068 5.66535 4.69212 5.40671C4.74357 5.14807 4.87056 4.91049 5.05703 4.72402C5.2435 4.53755 5.48108 4.41056 5.73972 4.35912C5.99836 4.30767 6.26645 4.33407 6.51008 4.43499C6.75372 4.53591 6.96195 4.7068 7.10846 4.92607C7.25497 5.14533 7.33317 5.40312 7.33317 5.66683C7.33317 6.02045 7.19269 6.35959 6.94265 6.60964C6.6926 6.85969 6.35346 7.00016 5.99984 7.00016Z" fill="white"/>
</svg>
